<mxfile host="app.diagrams.net" agent="Mozilla/5.0 (Windows NT 10.0; Win64; x64) AppleWebKit/537.36 (KHTML, like Gecko) Chrome/133.0.0.0 Safari/537.36" version="26.0.15">
  <diagram name="Page-1" id="dYAoki36jMoEkOW6MRlO">
    <mxGraphModel dx="1120" dy="434" grid="1" gridSize="10" guides="1" tooltips="1" connect="1" arrows="1" fold="1" page="1" pageScale="1" pageWidth="850" pageHeight="1100" math="0" shadow="0">
      <root>
        <mxCell id="0" />
        <mxCell id="1" parent="0" />
        <mxCell id="aeNxc6FGITyyudNfJ484-15" style="edgeStyle=orthogonalEdgeStyle;rounded=0;orthogonalLoop=1;jettySize=auto;html=1;" parent="1" source="aeNxc6FGITyyudNfJ484-1" target="aeNxc6FGITyyudNfJ484-3" edge="1">
          <mxGeometry relative="1" as="geometry" />
        </mxCell>
        <mxCell id="aeNxc6FGITyyudNfJ484-1" value="imput&amp;nbsp;&lt;div&gt;employee ID (1-10)&lt;/div&gt;" style="rounded=0;whiteSpace=wrap;html=1;" parent="1" vertex="1">
          <mxGeometry x="111.25" y="150" width="140" height="60" as="geometry" />
        </mxCell>
        <mxCell id="aeNxc6FGITyyudNfJ484-14" style="edgeStyle=orthogonalEdgeStyle;rounded=0;orthogonalLoop=1;jettySize=auto;html=1;entryX=0.5;entryY=0;entryDx=0;entryDy=0;" parent="1" source="aeNxc6FGITyyudNfJ484-2" target="aeNxc6FGITyyudNfJ484-1" edge="1">
          <mxGeometry relative="1" as="geometry" />
        </mxCell>
        <mxCell id="aeNxc6FGITyyudNfJ484-2" value="start" style="ellipse;whiteSpace=wrap;html=1;" parent="1" vertex="1">
          <mxGeometry x="133.75" y="40" width="95" height="60" as="geometry" />
        </mxCell>
        <mxCell id="aeNxc6FGITyyudNfJ484-16" style="edgeStyle=orthogonalEdgeStyle;rounded=0;orthogonalLoop=1;jettySize=auto;html=1;entryX=0;entryY=0.5;entryDx=0;entryDy=0;" parent="1" source="aeNxc6FGITyyudNfJ484-3" target="aeNxc6FGITyyudNfJ484-5" edge="1">
          <mxGeometry relative="1" as="geometry" />
        </mxCell>
        <mxCell id="aeNxc6FGITyyudNfJ484-19" value="no" style="edgeLabel;html=1;align=center;verticalAlign=middle;resizable=0;points=[];" parent="aeNxc6FGITyyudNfJ484-16" vertex="1" connectable="0">
          <mxGeometry x="-0.1636" y="-1" relative="1" as="geometry">
            <mxPoint as="offset" />
          </mxGeometry>
        </mxCell>
        <mxCell id="aeNxc6FGITyyudNfJ484-20" style="edgeStyle=orthogonalEdgeStyle;rounded=0;orthogonalLoop=1;jettySize=auto;html=1;" parent="1" source="aeNxc6FGITyyudNfJ484-3" target="aeNxc6FGITyyudNfJ484-7" edge="1">
          <mxGeometry relative="1" as="geometry" />
        </mxCell>
        <mxCell id="aeNxc6FGITyyudNfJ484-21" value="yes" style="edgeLabel;html=1;align=center;verticalAlign=middle;resizable=0;points=[];" parent="aeNxc6FGITyyudNfJ484-20" vertex="1" connectable="0">
          <mxGeometry x="0.0511" y="2" relative="1" as="geometry">
            <mxPoint as="offset" />
          </mxGeometry>
        </mxCell>
        <mxCell id="aeNxc6FGITyyudNfJ484-3" value="is employee ID&lt;div&gt;&amp;nbsp;&amp;lt;=10?&lt;/div&gt;" style="rhombus;whiteSpace=wrap;html=1;" parent="1" vertex="1">
          <mxGeometry x="125" y="245" width="112.5" height="110" as="geometry" />
        </mxCell>
        <mxCell id="aeNxc6FGITyyudNfJ484-23" style="edgeStyle=orthogonalEdgeStyle;rounded=0;orthogonalLoop=1;jettySize=auto;html=1;" parent="1" source="aeNxc6FGITyyudNfJ484-4" target="aeNxc6FGITyyudNfJ484-11" edge="1">
          <mxGeometry relative="1" as="geometry" />
        </mxCell>
        <mxCell id="aeNxc6FGITyyudNfJ484-4" value="imput&lt;div&gt;hours worked&lt;/div&gt;" style="rounded=0;whiteSpace=wrap;html=1;" parent="1" vertex="1">
          <mxGeometry x="540" y="160" width="120" height="60" as="geometry" />
        </mxCell>
        <mxCell id="aeNxc6FGITyyudNfJ484-17" style="edgeStyle=orthogonalEdgeStyle;rounded=0;orthogonalLoop=1;jettySize=auto;html=1;entryX=1;entryY=0.5;entryDx=0;entryDy=0;" parent="1" source="aeNxc6FGITyyudNfJ484-5" target="aeNxc6FGITyyudNfJ484-1" edge="1">
          <mxGeometry relative="1" as="geometry">
            <Array as="points">
              <mxPoint x="360" y="180" />
            </Array>
          </mxGeometry>
        </mxCell>
        <mxCell id="aeNxc6FGITyyudNfJ484-5" value="print&lt;div&gt;&quot;ID not found&quot;&lt;/div&gt;" style="rounded=0;whiteSpace=wrap;html=1;" parent="1" vertex="1">
          <mxGeometry x="290" y="275" width="115" height="50" as="geometry" />
        </mxCell>
        <mxCell id="aeNxc6FGITyyudNfJ484-25" style="edgeStyle=orthogonalEdgeStyle;rounded=0;orthogonalLoop=1;jettySize=auto;html=1;entryX=0.5;entryY=0;entryDx=0;entryDy=0;" parent="1" source="aeNxc6FGITyyudNfJ484-7" target="aeNxc6FGITyyudNfJ484-13" edge="1">
          <mxGeometry relative="1" as="geometry" />
        </mxCell>
        <mxCell id="aeNxc6FGITyyudNfJ484-7" value="calculatePayroll()" style="rounded=0;whiteSpace=wrap;html=1;" parent="1" vertex="1">
          <mxGeometry x="121.25" y="390" width="120" height="60" as="geometry" />
        </mxCell>
        <mxCell id="aeNxc6FGITyyudNfJ484-8" value="" style="endArrow=none;html=1;rounded=0;entryX=1;entryY=0.25;entryDx=0;entryDy=0;exitX=0;exitY=0.25;exitDx=0;exitDy=0;" parent="1" source="aeNxc6FGITyyudNfJ484-7" target="aeNxc6FGITyyudNfJ484-7" edge="1">
          <mxGeometry width="50" height="50" relative="1" as="geometry">
            <mxPoint x="240" y="500" as="sourcePoint" />
            <mxPoint x="290" y="450" as="targetPoint" />
          </mxGeometry>
        </mxCell>
        <mxCell id="aeNxc6FGITyyudNfJ484-22" style="edgeStyle=orthogonalEdgeStyle;rounded=0;orthogonalLoop=1;jettySize=auto;html=1;" parent="1" source="aeNxc6FGITyyudNfJ484-9" target="aeNxc6FGITyyudNfJ484-4" edge="1">
          <mxGeometry relative="1" as="geometry" />
        </mxCell>
        <mxCell id="aeNxc6FGITyyudNfJ484-9" value="calculatePayroll()" style="ellipse;whiteSpace=wrap;html=1;" parent="1" vertex="1">
          <mxGeometry x="550" y="70" width="100" height="50" as="geometry" />
        </mxCell>
        <mxCell id="aeNxc6FGITyyudNfJ484-24" style="edgeStyle=orthogonalEdgeStyle;rounded=0;orthogonalLoop=1;jettySize=auto;html=1;entryX=0.5;entryY=0;entryDx=0;entryDy=0;" parent="1" source="aeNxc6FGITyyudNfJ484-11" target="aeNxc6FGITyyudNfJ484-12" edge="1">
          <mxGeometry relative="1" as="geometry" />
        </mxCell>
        <mxCell id="aeNxc6FGITyyudNfJ484-11" value="grossPay = hoursWorked * hourlyRate&lt;div&gt;taxes = grossPay * taxRate&lt;/div&gt;&lt;div&gt;netPay = grosspay - taxes&lt;/div&gt;" style="rounded=0;whiteSpace=wrap;html=1;" parent="1" vertex="1">
          <mxGeometry x="505" y="250" width="190" height="140" as="geometry" />
        </mxCell>
        <mxCell id="aeNxc6FGITyyudNfJ484-12" value="return" style="ellipse;whiteSpace=wrap;html=1;" parent="1" vertex="1">
          <mxGeometry x="540" y="430" width="120" height="60" as="geometry" />
        </mxCell>
        <mxCell id="aeNxc6FGITyyudNfJ484-28" style="edgeStyle=orthogonalEdgeStyle;rounded=0;orthogonalLoop=1;jettySize=auto;html=1;entryX=0.5;entryY=0;entryDx=0;entryDy=0;" parent="1" source="aeNxc6FGITyyudNfJ484-13" target="aeNxc6FGITyyudNfJ484-27" edge="1">
          <mxGeometry relative="1" as="geometry" />
        </mxCell>
        <mxCell id="aeNxc6FGITyyudNfJ484-13" value="print&lt;div&gt;&quot;your payroll is &quot; + netPay&lt;/div&gt;" style="rounded=0;whiteSpace=wrap;html=1;" parent="1" vertex="1">
          <mxGeometry x="121.25" y="490" width="120" height="60" as="geometry" />
        </mxCell>
        <mxCell id="aeNxc6FGITyyudNfJ484-27" value="stop" style="ellipse;whiteSpace=wrap;html=1;" parent="1" vertex="1">
          <mxGeometry x="131.75" y="600" width="99" height="60" as="geometry" />
        </mxCell>
      </root>
    </mxGraphModel>
  </diagram>
</mxfile>
